<mxfile host="app.diagrams.net" agent="Mozilla/5.0 (Windows NT 10.0; Win64; x64) AppleWebKit/537.36 (KHTML, like Gecko) Chrome/127.0.0.0 Safari/537.36" version="24.7.8">
  <diagram name="Page-1" id="NGIE_064RFhelFJgiyBL">
    <mxGraphModel dx="794" dy="464" grid="1" gridSize="10" guides="1" tooltips="1" connect="1" arrows="1" fold="1" page="1" pageScale="1" pageWidth="850" pageHeight="1100" math="0" shadow="0">
      <root>
        <mxCell id="0" />
        <mxCell id="1" parent="0" />
        <mxCell id="4PmD4bZEWicJvQV8BKhQ-1" value="Actor" style="shape=umlActor;verticalLabelPosition=bottom;verticalAlign=top;html=1;" parent="1" vertex="1">
          <mxGeometry x="30" y="180" width="30" height="60" as="geometry" />
        </mxCell>
        <mxCell id="4PmD4bZEWicJvQV8BKhQ-2" value="Reservation" style="ellipse;whiteSpace=wrap;html=1;" parent="1" vertex="1">
          <mxGeometry x="200" y="60" width="110" height="40" as="geometry" />
        </mxCell>
        <mxCell id="4PmD4bZEWicJvQV8BKhQ-4" value="Share experience/&lt;div&gt;Give feedback&lt;/div&gt;" style="ellipse;whiteSpace=wrap;html=1;" parent="1" vertex="1">
          <mxGeometry x="200" y="150" width="120" height="50" as="geometry" />
        </mxCell>
        <mxCell id="4PmD4bZEWicJvQV8BKhQ-5" value="Cancel Reservation" style="ellipse;whiteSpace=wrap;html=1;" parent="1" vertex="1">
          <mxGeometry x="200" y="260" width="110" height="40" as="geometry" />
        </mxCell>
        <mxCell id="4PmD4bZEWicJvQV8BKhQ-6" value="Edit Own Account&amp;nbsp;&lt;div&gt;Details&amp;nbsp;&lt;/div&gt;" style="ellipse;whiteSpace=wrap;html=1;" parent="1" vertex="1">
          <mxGeometry x="200" y="350" width="130" height="50" as="geometry" />
        </mxCell>
        <mxCell id="4PmD4bZEWicJvQV8BKhQ-9" value="" style="endArrow=none;html=1;rounded=0;entryX=0.058;entryY=0.732;entryDx=0;entryDy=0;entryPerimeter=0;" parent="1" target="4PmD4bZEWicJvQV8BKhQ-2" edge="1">
          <mxGeometry width="50" height="50" relative="1" as="geometry">
            <mxPoint x="50" y="210" as="sourcePoint" />
            <mxPoint x="100" y="160" as="targetPoint" />
          </mxGeometry>
        </mxCell>
        <mxCell id="4PmD4bZEWicJvQV8BKhQ-10" value="" style="endArrow=none;html=1;rounded=0;entryX=0;entryY=0.5;entryDx=0;entryDy=0;" parent="1" target="4PmD4bZEWicJvQV8BKhQ-4" edge="1">
          <mxGeometry width="50" height="50" relative="1" as="geometry">
            <mxPoint x="50" y="210" as="sourcePoint" />
            <mxPoint x="100" y="160" as="targetPoint" />
          </mxGeometry>
        </mxCell>
        <mxCell id="4PmD4bZEWicJvQV8BKhQ-11" value="" style="endArrow=none;html=1;rounded=0;entryX=0;entryY=0.5;entryDx=0;entryDy=0;" parent="1" target="4PmD4bZEWicJvQV8BKhQ-5" edge="1">
          <mxGeometry width="50" height="50" relative="1" as="geometry">
            <mxPoint x="50" y="210" as="sourcePoint" />
            <mxPoint x="100" y="160" as="targetPoint" />
          </mxGeometry>
        </mxCell>
        <mxCell id="4PmD4bZEWicJvQV8BKhQ-12" value="" style="endArrow=none;html=1;rounded=0;" parent="1" target="4PmD4bZEWicJvQV8BKhQ-13" edge="1">
          <mxGeometry width="50" height="50" relative="1" as="geometry">
            <mxPoint x="50" y="210" as="sourcePoint" />
            <mxPoint x="100" y="160" as="targetPoint" />
            <Array as="points">
              <mxPoint x="300" y="210" />
            </Array>
          </mxGeometry>
        </mxCell>
        <mxCell id="4PmD4bZEWicJvQV8BKhQ-13" value="" style="ellipse;whiteSpace=wrap;html=1;" parent="1" vertex="1">
          <mxGeometry x="390" y="50" width="140" height="80" as="geometry" />
        </mxCell>
        <mxCell id="4PmD4bZEWicJvQV8BKhQ-14" value="" style="line;strokeWidth=1;fillColor=none;align=left;verticalAlign=middle;spacingTop=-1;spacingLeft=3;spacingRight=3;rotatable=0;labelPosition=right;points=[];portConstraint=eastwest;strokeColor=inherit;" parent="1" vertex="1">
          <mxGeometry x="390" y="80.5" width="140" height="9" as="geometry" />
        </mxCell>
        <mxCell id="4PmD4bZEWicJvQV8BKhQ-15" value="Login" style="text;html=1;align=center;verticalAlign=middle;whiteSpace=wrap;rounded=0;" parent="1" vertex="1">
          <mxGeometry x="430" y="60" width="60" height="30" as="geometry" />
        </mxCell>
        <mxCell id="ux0_6bR0s_g9FaFJAKV_-1" value="Ex:Point:if enter wrong credential" style="text;html=1;align=center;verticalAlign=middle;whiteSpace=wrap;rounded=0;" vertex="1" parent="1">
          <mxGeometry x="425" y="90" width="75" height="30" as="geometry" />
        </mxCell>
        <mxCell id="ux0_6bR0s_g9FaFJAKV_-4" value="&amp;lt;&amp;lt;include&amp;gt;&amp;gt;" style="text;html=1;align=center;verticalAlign=middle;whiteSpace=wrap;rounded=0;" vertex="1" parent="1">
          <mxGeometry x="320" y="50.5" width="60" height="30" as="geometry" />
        </mxCell>
        <mxCell id="ux0_6bR0s_g9FaFJAKV_-6" value="&amp;lt;&amp;lt;include&amp;gt;&amp;gt;" style="text;html=1;align=center;verticalAlign=middle;whiteSpace=wrap;rounded=0;rotation=-55;" vertex="1" parent="1">
          <mxGeometry x="320" y="110" width="60" height="30" as="geometry" />
        </mxCell>
        <mxCell id="ux0_6bR0s_g9FaFJAKV_-8" value="&amp;lt;&amp;lt;include&amp;gt;&amp;gt;" style="text;html=1;align=center;verticalAlign=middle;whiteSpace=wrap;rounded=0;rotation=-65;" vertex="1" parent="1">
          <mxGeometry x="300" y="200" width="60" height="30" as="geometry" />
        </mxCell>
        <mxCell id="ux0_6bR0s_g9FaFJAKV_-12" value="&amp;lt;&amp;lt;include&amp;gt;&amp;gt;" style="text;html=1;align=center;verticalAlign=middle;whiteSpace=wrap;rounded=0;rotation=-60;" vertex="1" parent="1">
          <mxGeometry x="340" y="230" width="60" height="10" as="geometry" />
        </mxCell>
        <mxCell id="ux0_6bR0s_g9FaFJAKV_-13" value="" style="endArrow=block;dashed=1;endFill=0;endSize=12;html=1;rounded=0;exitX=1;exitY=0.5;exitDx=0;exitDy=0;entryX=0.286;entryY=1;entryDx=0;entryDy=0;entryPerimeter=0;" edge="1" parent="1" source="4PmD4bZEWicJvQV8BKhQ-6" target="4PmD4bZEWicJvQV8BKhQ-13">
          <mxGeometry width="160" relative="1" as="geometry">
            <mxPoint x="330" y="240" as="sourcePoint" />
            <mxPoint x="490" y="240" as="targetPoint" />
          </mxGeometry>
        </mxCell>
        <mxCell id="ux0_6bR0s_g9FaFJAKV_-15" value="" style="endArrow=block;dashed=1;endFill=0;endSize=12;html=1;rounded=0;exitX=1;exitY=0.5;exitDx=0;exitDy=0;" edge="1" parent="1" source="4PmD4bZEWicJvQV8BKhQ-5">
          <mxGeometry width="160" relative="1" as="geometry">
            <mxPoint x="330" y="240" as="sourcePoint" />
            <mxPoint x="390" y="80" as="targetPoint" />
          </mxGeometry>
        </mxCell>
        <mxCell id="ux0_6bR0s_g9FaFJAKV_-16" value="" style="endArrow=block;dashed=1;endFill=0;endSize=12;html=1;rounded=0;" edge="1" parent="1">
          <mxGeometry width="160" relative="1" as="geometry">
            <mxPoint x="320" y="170" as="sourcePoint" />
            <mxPoint x="390" y="80" as="targetPoint" />
          </mxGeometry>
        </mxCell>
        <mxCell id="ux0_6bR0s_g9FaFJAKV_-18" value="" style="endArrow=block;dashed=1;endFill=0;endSize=12;html=1;rounded=0;exitX=1;exitY=0.5;exitDx=0;exitDy=0;" edge="1" parent="1" source="4PmD4bZEWicJvQV8BKhQ-2">
          <mxGeometry width="160" relative="1" as="geometry">
            <mxPoint x="330" y="240" as="sourcePoint" />
            <mxPoint x="390" y="80" as="targetPoint" />
          </mxGeometry>
        </mxCell>
        <mxCell id="ux0_6bR0s_g9FaFJAKV_-20" value="Validate User" style="ellipse;whiteSpace=wrap;html=1;" vertex="1" parent="1">
          <mxGeometry x="580" y="20" width="130" height="40" as="geometry" />
        </mxCell>
        <mxCell id="ux0_6bR0s_g9FaFJAKV_-21" value="" style="endArrow=block;dashed=1;endFill=0;endSize=12;html=1;rounded=0;entryX=0;entryY=0.5;entryDx=0;entryDy=0;exitX=1.01;exitY=0.408;exitDx=0;exitDy=0;exitPerimeter=0;" edge="1" parent="1" source="4PmD4bZEWicJvQV8BKhQ-13" target="ux0_6bR0s_g9FaFJAKV_-20">
          <mxGeometry width="160" relative="1" as="geometry">
            <mxPoint x="330" y="150" as="sourcePoint" />
            <mxPoint x="490" y="150" as="targetPoint" />
          </mxGeometry>
        </mxCell>
        <mxCell id="ux0_6bR0s_g9FaFJAKV_-22" value="User Name or password error" style="ellipse;whiteSpace=wrap;html=1;" vertex="1" parent="1">
          <mxGeometry x="600" y="100" width="110" height="50" as="geometry" />
        </mxCell>
        <mxCell id="ux0_6bR0s_g9FaFJAKV_-25" value="&amp;lt;&amp;lt;extend&amp;gt;&amp;gt;" style="html=1;verticalAlign=bottom;endArrow=open;dashed=1;endSize=8;curved=0;rounded=0;exitX=0;exitY=0.5;exitDx=0;exitDy=0;" edge="1" parent="1" source="ux0_6bR0s_g9FaFJAKV_-22" target="4PmD4bZEWicJvQV8BKhQ-13">
          <mxGeometry x="-0.1626" y="-7" relative="1" as="geometry">
            <mxPoint x="450" y="150" as="sourcePoint" />
            <mxPoint x="370" y="150" as="targetPoint" />
            <mxPoint as="offset" />
          </mxGeometry>
        </mxCell>
        <mxCell id="ux0_6bR0s_g9FaFJAKV_-26" value="&amp;lt;&amp;lt;include&amp;gt;&amp;gt;" style="text;html=1;align=center;verticalAlign=middle;whiteSpace=wrap;rounded=0;rotation=-40;" vertex="1" parent="1">
          <mxGeometry x="510" y="30" width="60" height="30" as="geometry" />
        </mxCell>
        <mxCell id="ux0_6bR0s_g9FaFJAKV_-27" value="" style="endArrow=none;html=1;rounded=0;exitX=0;exitY=0.5;exitDx=0;exitDy=0;" edge="1" parent="1" source="4PmD4bZEWicJvQV8BKhQ-6">
          <mxGeometry width="50" height="50" relative="1" as="geometry">
            <mxPoint x="380" y="280" as="sourcePoint" />
            <mxPoint x="200" y="375" as="targetPoint" />
            <Array as="points">
              <mxPoint x="50" y="210" />
            </Array>
          </mxGeometry>
        </mxCell>
      </root>
    </mxGraphModel>
  </diagram>
</mxfile>
